<svg width="23" height="20" viewBox="0 0 23 20" fill="none" xmlns="http://www.w3.org/2000/svg">
<path d="M8.76373 18.4513V12.8647C8.76373 12.4275 9.05774 12.1426 9.49404 12.1426H13.1646C13.6104 12.1426 13.8854 12.4275 13.8854 12.8647V18.4513H8.76373ZM2.95919 17.8908C2.95919 19.2114 3.75589 19.981 5.0932 19.981H17.5654C18.9027 19.981 19.6899 19.2114 19.6899 17.8908V10.3468L11.8936 3.80048C11.5332 3.49644 11.1064 3.50595 10.7555 3.80048L2.95919 10.3468V17.8908ZM0.815672 10.1473C1.08124 10.1473 1.29938 10.0048 1.49856 9.84326L10.9926 1.85274C11.0969 1.76723 11.2202 1.71972 11.3246 1.71972C11.4383 1.71972 11.5522 1.76723 11.6566 1.85274L21.16 9.84326C21.3497 10.0048 21.5678 10.1473 21.8335 10.1473C22.3456 10.1473 22.6491 9.77671 22.6491 9.38719C22.6491 9.16867 22.5637 8.94063 22.3456 8.76961L12.4627 0.456058C12.1023 0.152019 11.7134 0 11.3246 0C10.9357 0 10.5468 0.152019 10.1864 0.456058L0.303506 8.76961C0.0948455 8.94063 0 9.16867 0 9.38719C0 9.77671 0.303506 10.1473 0.815672 10.1473ZM17.499 5.10215L19.8797 7.1164V2.83136C19.8797 2.41331 19.614 2.14727 19.1967 2.14727H18.1819C17.7741 2.14727 17.499 2.41331 17.499 2.83136V5.10215Z" fill="#58606C"/>
</svg>
