<svg width="19" height="19" viewBox="0 0 19 19" fill="none" xmlns="http://www.w3.org/2000/svg">
<path d="M16.8652 1.15234C17.8613 2.14844 18.0078 3.53516 18.0078 5.20508V12.793C18.0078 14.4629 17.8613 15.8594 16.8652 16.8555C15.8691 17.8516 14.4629 18.0078 12.793 18.0078H5.20508C3.54492 18.0078 2.13867 17.8516 1.14258 16.8555C0.146484 15.8594 0 14.4629 0 12.793V5.18555C0 3.54492 0.146484 2.14844 1.14258 1.15234C2.13867 0.15625 3.54492 0 5.18555 0H12.793C14.4629 0 15.8691 0.15625 16.8652 1.15234ZM8.14453 5.09766V8.1543H5.08789C4.57031 8.1543 4.21875 8.50586 4.21875 9.01367C4.21875 9.51172 4.58008 9.84375 5.08789 9.84375H8.14453V12.9102C8.14453 13.4082 8.47656 13.7695 8.97461 13.7695C9.48242 13.7695 9.83398 13.418 9.83398 12.9102V9.84375H12.9004C13.3984 9.84375 13.7598 9.51172 13.7598 9.01367C13.7598 8.50586 13.3984 8.1543 12.9004 8.1543H9.83398V5.09766C9.83398 4.58984 9.48242 4.22852 8.97461 4.22852C8.47656 4.22852 8.14453 4.58984 8.14453 5.09766Z" fill="#6B7280"/>
</svg>
