<svg width="22" height="21" viewBox="0 0 22 21" fill="none" xmlns="http://www.w3.org/2000/svg">
<path d="M10.0506 20.4102H11.9737C12.5171 20.4102 12.9039 20.1074 13.0292 19.6094L13.5728 17.4609C13.9804 17.334 14.3775 17.1875 14.7225 17.0312L16.7395 18.1836C17.189 18.4473 17.7011 18.4082 18.0773 18.0566L19.4256 16.8066C19.8019 16.4551 19.8541 15.9473 19.551 15.5273L18.3177 13.6621C18.4955 13.3203 18.6523 12.9688 18.7672 12.6172L21.0874 12.0996C21.6204 11.9824 21.934 11.6211 21.934 11.1133V9.3457C21.934 8.84766 21.6204 8.48633 21.0874 8.36914L18.7881 7.85156C18.6523 7.45117 18.485 7.08984 18.3387 6.78711L19.5719 4.89258C19.8541 4.46289 19.8333 4.00391 19.4465 3.64258L18.0773 2.38281C17.6907 2.05078 17.2204 1.97266 16.7709 2.23633L14.7225 3.41797C14.388 3.25195 14.0012 3.10547 13.5728 2.97852L13.0292 0.800781C12.9039 0.302734 12.5171 0 11.9737 0H10.0506C9.50714 0 9.12043 0.302734 8.98457 0.800781L8.44108 2.95898C8.03348 3.08594 7.63632 3.23242 7.28097 3.4082L5.25338 2.23633C4.80396 1.97266 4.31274 2.03125 3.93649 2.38281L2.57779 3.64258C2.19108 4.00391 2.15973 4.46289 2.45237 4.89258L3.6752 6.78711C3.53933 7.08984 3.37211 7.45117 3.23623 7.85156L0.936904 8.36914C0.403877 8.48633 0.090332 8.84766 0.090332 9.3457V11.1133C0.090332 11.6211 0.403877 11.9824 0.936904 12.0996L3.25713 12.6172C3.37211 12.9688 3.52888 13.3203 3.6961 13.6621L2.47327 15.5273C2.15973 15.9473 2.22244 16.4551 2.59869 16.8066L3.93649 18.0566C4.31274 18.4082 4.83531 18.4473 5.28473 18.1836L7.29142 17.0312C7.64677 17.1875 8.03348 17.334 8.44108 17.4609L8.98457 19.6094C9.12043 20.1074 9.50714 20.4102 10.0506 20.4102ZM11.0122 13.6523C8.97411 13.6523 7.32277 12.1094 7.32277 10.2051C7.32277 8.30078 8.97411 6.75781 11.0122 6.75781C13.0502 6.75781 14.7015 8.30078 14.7015 10.2051C14.7015 12.1094 13.0502 13.6523 11.0122 13.6523Z" fill="#58606C"/>
</svg>
