<svg width="25" height="25" viewBox="0 0 25 25" fill="none" xmlns="http://www.w3.org/2000/svg">
<g clip-path="url(#clip0_34_1270)">
<path d="M24.5075 4.20967V20.8039C24.5075 23.6014 23.1231 25 20.3275 25H4.17999C1.39777 25 0 23.6014 0 20.8039V4.20967C0 1.41227 1.39777 0 4.17999 0H20.3275C23.1231 0 24.5075 1.41227 24.5075 4.20967ZM9.67787 16.2819C9.57137 16.4449 9.61131 16.6486 9.75774 16.798L11.5948 18.604C11.901 18.93 12.0607 19.0115 12.2737 19.0115C12.4867 19.0115 12.6332 18.9435 12.966 18.604L14.7897 16.798C14.9495 16.6486 14.976 16.3905 14.8296 16.2141C14.2838 15.4671 13.2721 14.9512 12.2737 14.9512C11.262 14.9512 10.2503 15.4807 9.67787 16.2819ZM6.58947 13.0092C6.44304 13.1858 6.46966 13.4166 6.62941 13.5932L7.78756 14.7882C8.00055 15.0054 8.26679 15.0191 8.4931 14.761C9.42494 13.7018 10.8626 13.0228 12.2737 13.05C13.6581 13.0228 15.1226 13.7018 16.0676 14.7746C16.2807 15.0054 16.5469 15.0054 16.7599 14.7882L17.918 13.5932C18.0911 13.4302 18.1043 13.1722 17.9447 13.0092C16.7067 11.4612 14.5101 10.4699 12.2737 10.4699C10.024 10.4699 7.8408 11.4612 6.58947 13.0092ZM3.58094 9.89952C3.43451 10.1032 3.46113 10.3341 3.6342 10.5106L4.65922 11.5834C4.83228 11.8007 5.13846 11.8007 5.35145 11.5698C7.14858 9.61434 9.55806 8.56872 12.2737 8.56872C14.9894 8.56872 17.4255 9.60077 19.2093 11.5834C19.409 11.7871 19.6886 11.7735 19.8882 11.5698L20.9133 10.5106C21.0864 10.3341 21.113 10.1032 20.9532 9.89952C19.0895 7.56383 15.655 6.01575 12.2737 6.01575C8.87914 6.01575 5.44463 7.56383 3.58094 9.89952Z" fill="#192BB4"/>
</g>
<defs>
<clipPath id="clip0_34_1270">
<rect width="25" height="25" fill="white"/>
</clipPath>
</defs>
</svg>
